<svg width="18" height="18" viewBox="0 0 18 18" fill="none" xmlns="http://www.w3.org/2000/svg">
<g clip-path="url(#clip0_10_523)">
<path d="M14.3691 0.660004H4.27352C3.31762 0.661149 2.4012 1.04139 1.72528 1.71731C1.04935 2.39324 0.669114 3.30966 0.667969 4.26556L0.667969 14.3611C0.669114 15.317 1.04935 16.2334 1.72528 16.9094C2.4012 17.5853 3.31762 17.9655 4.27352 17.9667H14.3691C15.325 17.9655 16.2414 17.5853 16.9173 16.9094C17.5933 16.2334 17.9735 15.317 17.9746 14.3611V4.26556C17.9735 3.30966 17.5933 2.39324 16.9173 1.71731C16.2414 1.04139 15.325 0.661149 14.3691 0.660004ZM5.71575 16.5244V15.8033C5.71575 14.8471 6.09562 13.93 6.77179 13.2538C7.44796 12.5777 8.36505 12.1978 9.3213 12.1978C10.2776 12.1978 11.1946 12.5777 11.8708 13.2538C12.547 13.93 12.9269 14.8471 12.9269 15.8033V16.5244H5.71575ZM16.5324 14.3611C16.5324 14.9349 16.3045 15.4851 15.8988 15.8908C15.4931 16.2965 14.9428 16.5244 14.3691 16.5244V15.8033C14.3691 14.4646 13.8373 13.1807 12.8906 12.234C11.944 11.2874 10.6601 10.7556 9.3213 10.7556C7.98255 10.7556 6.69863 11.2874 5.75198 12.234C4.80534 13.1807 4.27352 14.4646 4.27352 15.8033V16.5244C3.69977 16.5244 3.14952 16.2965 2.74382 15.8908C2.33811 15.4851 2.11019 14.9349 2.11019 14.3611V4.26556C2.11019 3.69181 2.33811 3.14156 2.74382 2.73585C3.14952 2.33015 3.69977 2.10223 4.27352 2.10223H14.3691C14.9428 2.10223 15.4931 2.33015 15.8988 2.73585C16.3045 3.14156 16.5324 3.69181 16.5324 4.26556V14.3611Z" fill="#8A8AC3"/>
<path d="M9.32146 3.54443C8.75097 3.54443 8.19329 3.7136 7.71895 4.03055C7.2446 4.3475 6.8749 4.79799 6.65658 5.32505C6.43826 5.85211 6.38114 6.43208 6.49244 6.99161C6.60373 7.55113 6.87845 8.06509 7.28185 8.46849C7.68524 8.87189 8.1992 9.1466 8.75873 9.2579C9.31826 9.3692 9.89822 9.31207 10.4253 9.09376C10.9524 8.87544 11.4028 8.50573 11.7198 8.03139C12.0367 7.55704 12.2059 6.99937 12.2059 6.42888C12.2059 5.66388 11.902 4.93021 11.3611 4.38927C10.8201 3.84833 10.0865 3.54443 9.32146 3.54443ZM9.32146 7.8711C9.03621 7.8711 8.75737 7.78652 8.5202 7.62804C8.28303 7.46957 8.09818 7.24432 7.98902 6.98079C7.87986 6.71726 7.8513 6.42728 7.90695 6.14751C7.9626 5.86775 8.09995 5.61077 8.30165 5.40907C8.50335 5.20737 8.76033 5.07002 9.04009 5.01437C9.31986 4.95872 9.60984 4.98728 9.87337 5.09644C10.1369 5.2056 10.3621 5.39045 10.5206 5.62762C10.6791 5.86479 10.7637 6.14363 10.7637 6.42888C10.7637 6.81138 10.6117 7.17821 10.3413 7.44868C10.0708 7.71915 9.70396 7.8711 9.32146 7.8711Z" fill="#8A8AC3"/>
</g>
<defs>
<clipPath id="clip0_10_523">
<rect width="17.3067" height="17.3067" fill="white" transform="translate(0.667969 0.660004)"/>
</clipPath>
</defs>
</svg>
