<svg width="18" height="18" viewBox="0 0 18 18" fill="none" xmlns="http://www.w3.org/2000/svg">
<g clip-path="url(#clip0_10_520)">
<path d="M14.3692 6.61798V5.5911C14.3692 2.80331 12.1093 0.543335 9.32145 0.543335C6.53363 0.543335 4.27368 2.80331 4.27368 5.5911V6.61798C2.96129 7.19075 2.11224 8.48584 2.11035 9.91777V14.2444C2.11272 16.2347 3.72558 17.8476 5.71588 17.85H12.927C14.9173 17.8476 16.5302 16.2347 16.5326 14.2444V9.91777C16.5307 8.48584 15.6816 7.19075 14.3692 6.61798ZM10.0426 12.8022C10.0426 13.2005 9.71971 13.5233 9.32145 13.5233C8.9232 13.5233 8.60035 13.2005 8.60035 12.8022V11.36C8.60035 10.9617 8.9232 10.6389 9.32145 10.6389C9.71971 10.6389 10.0426 10.9617 10.0426 11.36V12.8022ZM12.927 6.31224H5.71588V5.59114C5.71588 3.59985 7.33014 1.98557 9.32145 1.98557C11.3128 1.98557 12.927 3.59982 12.927 5.59114V6.31224Z" fill="#8A8AC3"/>
</g>
<defs>
<clipPath id="clip0_10_520">
<rect width="17.3067" height="17.3067" fill="white" transform="translate(0.667969 0.543335)"/>
</clipPath>
</defs>
</svg>
