<svg width="18" height="18" viewBox="0 0 18 18" fill="none" xmlns="http://www.w3.org/2000/svg">
<g clip-path="url(#clip0_10_514)">
<path d="M14.3692 6.32348V5.29662C14.3692 3.95786 13.8374 2.67394 12.8908 1.7273C11.9441 0.780658 10.6602 0.24884 9.32146 0.24884C7.98271 0.24884 6.69879 0.780658 5.75215 1.7273C4.8055 2.67394 4.27369 3.95786 4.27369 5.29662V6.32348C3.63144 6.60378 3.08478 7.06516 2.70058 7.6512C2.31638 8.23724 2.11127 8.92253 2.11035 9.62328V13.95C2.1115 14.9059 2.49173 15.8223 3.16766 16.4982C3.84358 17.1741 4.76001 17.5544 5.71591 17.5555H12.927C13.8829 17.5544 14.7993 17.1741 15.4753 16.4982C16.1512 15.8223 16.5314 14.9059 16.5326 13.95V9.62328C16.5317 8.92253 16.3266 8.23724 15.9423 7.6512C15.5581 7.06516 15.0115 6.60378 14.3692 6.32348ZM5.71591 5.29662C5.71591 4.34037 6.09578 3.42328 6.77195 2.74711C7.44812 2.07093 8.36521 1.69106 9.32146 1.69106C10.2777 1.69106 11.1948 2.07093 11.871 2.74711C12.5471 3.42328 12.927 4.34037 12.927 5.29662V6.01773H5.71591V5.29662ZM15.0904 13.95C15.0904 14.5237 14.8624 15.074 14.4567 15.4797C14.051 15.8854 13.5008 16.1133 12.927 16.1133H5.71591C5.14216 16.1133 4.5919 15.8854 4.1862 15.4797C3.7805 15.074 3.55257 14.5237 3.55257 13.95V9.62328C3.55257 9.04953 3.7805 8.49928 4.1862 8.09358C4.5919 7.68787 5.14216 7.45995 5.71591 7.45995H12.927C13.5008 7.45995 14.051 7.68787 14.4567 8.09358C14.8624 8.49928 15.0904 9.04953 15.0904 9.62328V13.95Z" fill="#8A8AC3"/>
<path d="M9.32121 10.3444C9.12996 10.3444 8.94654 10.4204 8.81131 10.5556C8.67607 10.6909 8.6001 10.8743 8.6001 11.0655V12.5078C8.6001 12.699 8.67607 12.8824 8.81131 13.0177C8.94654 13.1529 9.12996 13.2289 9.32121 13.2289C9.51246 13.2289 9.69588 13.1529 9.83111 13.0177C9.96635 12.8824 10.0423 12.699 10.0423 12.5078V11.0655C10.0423 10.8743 9.96635 10.6909 9.83111 10.5556C9.69588 10.4204 9.51246 10.3444 9.32121 10.3444Z" fill="#8A8AC3"/>
</g>
<defs>
<clipPath id="clip0_10_514">
<rect width="17.3067" height="17.3067" fill="white" transform="translate(0.667969 0.24884)"/>
</clipPath>
</defs>
</svg>
