<svg width="12" height="18" viewBox="0 0 12 18" fill="none" xmlns="http://www.w3.org/2000/svg">
<path d="M11.5939 6.19998C11.5948 5.08958 11.2752 4.00252 10.6735 3.06929C10.0717 2.13607 9.21346 1.39633 8.20166 0.938876C7.18987 0.481422 6.06756 0.325692 4.96944 0.49038C3.87132 0.655068 2.84406 1.13317 2.01097 1.86731C1.17788 2.60144 0.574371 3.56041 0.272875 4.62909C-0.028622 5.69778 -0.0152891 6.83077 0.311273 7.89206C0.637835 8.95336 1.26375 9.89786 2.11388 10.6122C2.96401 11.3265 4.00224 11.7803 5.10393 11.9191V14.1322H3.66171C3.47046 14.1322 3.28704 14.2082 3.1518 14.3434C3.01657 14.4786 2.94059 14.6621 2.94059 14.8533C2.94059 15.0446 3.01657 15.228 3.1518 15.3632C3.28704 15.4984 3.47046 15.5744 3.66171 15.5744H5.10393V17.0166C5.10393 17.2079 5.1799 17.3913 5.31514 17.5265C5.45037 17.6618 5.63379 17.7378 5.82504 17.7378C6.01629 17.7378 6.19971 17.6618 6.33494 17.5265C6.47018 17.3913 6.54615 17.2079 6.54615 17.0166V15.5744H7.98837C8.17962 15.5744 8.36304 15.4984 8.49828 15.3632C8.63351 15.228 8.70948 15.0446 8.70948 14.8533C8.70948 14.6621 8.63351 14.4786 8.49828 14.3434C8.36304 14.2082 8.17962 14.1322 7.98837 14.1322H6.54615V11.9191C7.93898 11.7424 9.21971 11.0643 10.1488 10.0117C11.0778 8.95902 11.5916 7.60397 11.5939 6.19998ZM1.49837 6.19998C1.49837 5.34424 1.75213 4.50773 2.22755 3.79621C2.70297 3.08469 3.3787 2.53013 4.1693 2.20266C4.95989 1.87518 5.82984 1.7895 6.66913 1.95645C7.50842 2.12339 8.27936 2.53547 8.88446 3.14056C9.48955 3.74566 9.90163 4.5166 10.0686 5.35589C10.2355 6.19518 10.1498 7.06513 9.82236 7.85572C9.49488 8.64632 8.94032 9.32205 8.22881 9.79747C7.51729 10.2729 6.68077 10.5266 5.82504 10.5266C4.67789 10.5255 3.57805 10.0693 2.76689 9.25813C1.95573 8.44697 1.49952 7.34713 1.49837 6.19998Z" fill="#8A8AC3"/>
</svg>
