<svg width="18" height="18" viewBox="0 0 18 18" fill="none" xmlns="http://www.w3.org/2000/svg">
<g clip-path="url(#clip0_9_469)">
<path d="M14.3691 2.95555H11.4846V2.23444C11.4846 1.04172 10.514 0.071106 9.3213 0.071106C8.12858 0.071106 7.15797 1.04172 7.15797 2.23444V2.95555H4.27352C2.28542 2.95555 0.667969 4.573 0.667969 6.56111V13.7722C0.667969 15.7603 2.28542 17.3778 4.27352 17.3778H14.3691C16.3572 17.3778 17.9746 15.7603 17.9746 13.7722V6.56111C17.9746 4.573 16.3572 2.95555 14.3691 2.95555ZM8.60019 2.23444C8.60019 1.83639 8.92397 1.51333 9.3213 1.51333C9.71863 1.51333 10.0424 1.83639 10.0424 2.23444V3.67306C10.0424 3.67306 10.0424 3.67522 10.0424 3.67666C10.0424 3.6781 10.0424 3.67882 10.0424 3.68027V4.39777H8.59947V2.23444H8.60019ZM16.5324 13.7722C16.5324 14.9649 15.5618 15.9356 14.3691 15.9356H4.27352C3.08081 15.9356 2.11019 14.9649 2.11019 13.7722V6.56111C2.11019 5.36839 3.08081 4.39777 4.27352 4.39777H7.15797C7.15797 5.19316 7.80481 5.83999 8.60019 5.83999H10.0424C10.8378 5.83999 11.4846 5.19316 11.4846 4.39777H14.3691C15.5618 4.39777 16.5324 5.36839 16.5324 6.56111V13.7722ZM7.51852 9.08499C7.51852 8.08914 8.32545 7.28222 9.3213 7.28222C10.3172 7.28222 11.1241 8.08914 11.1241 9.08499C11.1241 10.0808 10.3172 10.8878 9.3213 10.8878C8.32545 10.8878 7.51852 10.0808 7.51852 9.08499ZM12.9038 14.3138C13.0033 14.6988 12.7711 15.0926 12.3853 15.1921C11.9973 15.2923 11.6065 15.0587 11.507 14.6729C11.2683 13.7484 10.3287 13.0511 9.32058 13.0511C8.31247 13.0511 7.37214 13.7484 7.13417 14.6729C7.05052 14.9981 6.75775 15.2144 6.43614 15.2144C6.37701 15.2144 6.31643 15.2072 6.25586 15.1921C5.87006 15.0926 5.63787 14.6996 5.73738 14.3138C6.14048 12.7461 7.64688 11.6089 9.31986 11.6089C10.9928 11.6089 12.4992 12.7461 12.9023 14.3138H12.9038Z" fill="#8A8AC3"/>
</g>
<defs>
<clipPath id="clip0_9_469">
<rect width="17.3067" height="17.3067" fill="white" transform="translate(0.667969 0.071106)"/>
</clipPath>
</defs>
</svg>
