<svg width="17" height="17" viewBox="0 0 17 17" fill="none" xmlns="http://www.w3.org/2000/svg">
<g clip-path="url(#clip0_30_17)">
<path d="M8.83939 10.1044V7.78175H16.6658C16.7423 8.18621 16.7819 8.66504 16.7819 9.18354C16.7819 10.926 16.3059 13.0808 14.7703 14.6158C13.2771 16.1705 11.3696 17 8.84222 17C4.1573 17 0.218262 13.1842 0.218262 8.5C0.218262 3.81579 4.1573 0 8.84222 0C11.434 0 13.2799 1.01717 14.6668 2.34246L13.0278 3.98083C12.0333 3.04796 10.6853 2.32262 8.83939 2.32262C5.41885 2.32262 2.74347 5.07946 2.74347 8.5C2.74347 11.9205 5.41885 14.6774 8.83939 14.6774C11.0579 14.6774 12.3216 13.7863 13.1312 12.9767C13.7878 12.32 14.2199 11.3822 14.3899 10.1015L8.83939 10.1044Z" fill="white"/>
</g>
<defs>
<clipPath id="clip0_30_17">
<rect width="17" height="17" fill="white"/>
</clipPath>
</defs>
</svg>
