<svg width="18" height="19" viewBox="0 0 18 19" fill="none" xmlns="http://www.w3.org/2000/svg">
<g clip-path="url(#clip0_10_526)">
<path d="M14.3691 3.83887H4.27352C2.28254 3.83887 0.667969 5.45271 0.667969 7.44442V11.7711C0.667969 13.7621 2.28254 15.3766 4.27352 15.3766H14.3691C16.3572 15.3766 17.9746 13.7592 17.9746 11.7711V7.44442C17.9746 5.45632 16.3572 3.83887 14.3691 3.83887ZM6.52339 12.4922C6.28831 12.4922 6.08423 12.33 6.03159 12.1006L5.8405 11.2663H4.10334L3.90576 12.1035C3.85167 12.3314 3.64904 12.4922 3.41468 12.4922C3.08946 12.4922 2.84933 12.1886 2.9236 11.872L3.94253 7.55043C4.08748 6.92594 4.76244 6.53654 5.42514 6.81417C5.74171 6.94686 5.95443 7.25117 6.03231 7.58576L7.01519 11.8749C7.0873 12.1908 6.84789 12.4922 6.52339 12.4922ZM16.5324 11.7711C16.5324 12.9638 15.5618 13.9344 14.3691 13.9344H9.3213V5.28109H14.3691C15.5618 5.28109 16.5324 6.2517 16.5324 7.44442V11.7711ZM15.4507 7.88863V7.90377C15.4507 8.14895 15.2517 8.34798 15.0065 8.34798H14.7787C14.6914 9.26739 14.3337 10.3173 13.6198 11.1358C14.0107 11.373 14.4794 11.5425 15.0505 11.5966C15.2777 11.6182 15.4507 11.81 15.4507 12.0386V12.0538C15.4507 12.3177 15.2229 12.521 14.9604 12.4958C14.1405 12.4172 13.4756 12.1432 12.9355 11.7588C12.3925 12.1468 11.7197 12.4186 10.8933 12.4958C10.6308 12.5203 10.4037 12.317 10.4037 12.053V12.0379C10.4037 11.8064 10.5825 11.6168 10.8133 11.5951C11.3815 11.5411 11.8502 11.3738 12.2389 11.1372C12.0002 10.8639 11.8012 10.5647 11.6382 10.2524C11.4846 9.95822 11.7024 9.60631 12.0341 9.60631H12.0413C12.2043 9.60631 12.3565 9.69429 12.4315 9.83851C12.5649 10.0923 12.7314 10.3368 12.9312 10.5611C13.5211 9.89764 13.7907 9.04096 13.8708 8.34653H10.8486C10.6034 8.34653 10.4044 8.14751 10.4044 7.90233V7.88719C10.4044 7.64201 10.6034 7.44298 10.8486 7.44298H12.4762V7.16607C12.4762 6.9209 12.6752 6.72187 12.9204 6.72187H12.9355C13.1807 6.72187 13.3797 6.9209 13.3797 7.16607V7.44298H15.0073C15.2524 7.44298 15.4515 7.64201 15.4515 7.88719L15.4507 7.88863ZM5.04151 7.7783L5.60902 10.2568H4.34203L4.92685 7.7783C4.93334 7.75162 4.95642 7.73287 4.98382 7.73287C5.01122 7.73287 5.03574 7.75162 5.04151 7.7783Z" fill="#8A8AC3"/>
</g>
<defs>
<clipPath id="clip0_10_526">
<rect width="17.3067" height="17.3067" fill="white" transform="translate(0.667969 0.954437)"/>
</clipPath>
</defs>
</svg>
