<svg width="18" height="18" viewBox="0 0 18 18" fill="none" xmlns="http://www.w3.org/2000/svg">
<path d="M17.9746 6.85554V14.0667C17.9746 16.0548 16.3572 17.6722 14.3691 17.6722H4.27352C2.28542 17.6722 0.667969 16.0548 0.667969 14.0667V6.85554C0.667969 4.86744 2.28542 3.24998 4.27352 3.24998H7.15797V2.52887C7.15797 1.33616 8.12858 0.36554 9.3213 0.36554C10.514 0.36554 11.4846 1.33616 11.4846 2.52887V3.24998H14.3691C16.3572 3.24998 17.9746 4.86744 17.9746 6.85554ZM8.60019 5.41332H10.0431V2.52887C10.0424 2.13082 9.71863 1.80776 9.3213 1.80776C8.92397 1.80776 8.60019 2.13082 8.60019 2.52887V5.41332ZM7.51852 9.37943C7.51852 10.3738 8.32689 11.1822 9.3213 11.1822C10.3157 11.1822 11.1241 10.3738 11.1241 9.37943C11.1241 8.38502 10.3157 7.57665 9.3213 7.57665C8.32689 7.57665 7.51852 8.38502 7.51852 9.37943ZM12.9038 14.6082C12.5007 13.0405 10.9943 11.9033 9.3213 11.9033C7.64832 11.9033 6.1412 13.0405 5.73882 14.6082C5.63931 14.994 5.87151 15.387 6.2573 15.4865C6.64454 15.5868 7.0361 15.3524 7.13489 14.9673C7.37286 14.0429 8.31247 13.3455 9.3213 13.3455C10.3301 13.3455 11.2697 14.0429 11.5077 14.9673C11.5914 15.2925 11.8841 15.5089 12.2057 15.5089C12.2649 15.5089 12.3255 15.5017 12.386 15.4865C12.7718 15.387 13.0033 14.994 12.9038 14.6082Z" fill="#8A8AC3"/>
</svg>
