<svg width="18" height="18" viewBox="0 0 18 18" fill="none" xmlns="http://www.w3.org/2000/svg">
<g clip-path="url(#clip0_10_541)">
<path d="M9.75848 6.09208L10.7711 5.05584L11.956 6.1952L14.3025 3.90639L15.3217 4.9347L12.8094 7.38575C12.5855 7.60858 12.2809 7.73333 11.9567 7.73333C11.6325 7.73333 11.3286 7.60785 11.0997 7.3807L9.75848 6.09208ZM7.33128 5.56999C7.33128 2.78651 9.61455 0.522217 12.4198 0.522217C15.225 0.522217 17.5082 2.78651 17.5082 5.56999C17.5082 8.35348 15.225 10.6178 12.4198 10.6178C9.61455 10.6178 7.33128 8.35348 7.33128 5.56999ZM8.78513 5.56999C8.78513 7.5581 10.4156 9.17555 12.4198 9.17555C14.4239 9.17555 16.0544 7.5581 16.0544 5.56999C16.0544 3.58189 14.4239 1.96444 12.4198 1.96444C10.4156 1.96444 8.78513 3.58189 8.78513 5.56999ZM14.6005 12.7811H17.1448V15.305C17.1448 16.6967 16.0035 17.8289 14.6005 17.8289H6.24089C4.83792 17.8289 3.69664 16.6967 3.69664 15.305V5.56999H0.0620117V3.04611C0.0620117 1.65436 1.20329 0.522217 2.60625 0.522217H8.30827C7.79578 0.93325 7.34727 1.42 6.97944 1.96444H4.9048C5.06254 2.29254 5.1505 2.65959 5.1505 3.04611V15.305C5.1505 15.9014 5.63972 16.3867 6.24089 16.3867C6.84206 16.3867 7.33128 15.9014 7.33128 15.305V12.7811H13.1467V12.0196C13.6512 11.9641 14.1375 11.8523 14.6005 11.6901V12.7811ZM3.69664 3.04611C3.69664 2.44975 3.20742 1.96444 2.60625 1.96444C2.00509 1.96444 1.51586 2.44975 1.51586 3.04611V4.12777H3.69664V3.04611ZM8.78513 14.2233V15.305C8.78513 15.6922 8.69717 16.0586 8.53943 16.3867H14.6005C15.2017 16.3867 15.6909 15.9014 15.6909 15.305V14.2233H8.78513Z" fill="white"/>
</g>
<defs>
<clipPath id="clip0_10_541">
<rect width="17.4462" height="17.3067" fill="white" transform="translate(0.0620117 0.522217)"/>
</clipPath>
</defs>
</svg>
