<svg width="18" height="19" viewBox="0 0 18 19" fill="none" xmlns="http://www.w3.org/2000/svg">
<g clip-path="url(#clip0_10_536)">
<path d="M8.97023 15.9811C8.97023 16.3799 8.64717 16.7022 8.24912 16.7022H3.92245C1.93435 16.7022 0.316895 15.0848 0.316895 13.0967V4.44332C0.316895 2.45522 1.93435 0.837769 3.92245 0.837769H12.5758C14.5639 0.837769 16.1813 2.45522 16.1813 4.44332V8.76999C16.1813 9.16877 15.8583 9.4911 15.4602 9.4911C15.0622 9.4911 14.7391 9.16877 14.7391 8.76999V4.44332C14.7391 3.25061 13.7685 2.27999 12.5758 2.27999H3.92245C2.72973 2.27999 1.75912 3.25061 1.75912 4.44332V9.46154L3.784 7.43666C4.88874 6.33119 6.68647 6.33119 7.79193 7.43666L11.6434 11.2881C11.9253 11.5701 11.9253 12.0258 11.6434 12.3078C11.5028 12.4484 11.3182 12.519 11.1336 12.519C10.949 12.519 10.7644 12.4484 10.6237 12.3078L6.77228 8.45631C6.23001 7.91475 5.34737 7.91403 4.80365 8.45631L1.75912 11.5008V13.0967C1.75912 14.2894 2.72973 15.26 3.92245 15.26H8.24912C8.64717 15.26 8.97023 15.5823 8.97023 15.9811ZM11.1336 3.36166C12.3263 3.36166 13.2969 4.33227 13.2969 5.52499C13.2969 6.71771 12.3263 7.68832 11.1336 7.68832C9.94084 7.68832 8.97023 6.71771 8.97023 5.52499C8.97023 4.33227 9.94084 3.36166 11.1336 3.36166ZM11.1336 4.80388C10.7362 4.80388 10.4125 5.12694 10.4125 5.52499C10.4125 5.92304 10.7362 6.2461 11.1336 6.2461C11.5309 6.2461 11.8547 5.92304 11.8547 5.52499C11.8547 5.12694 11.5309 4.80388 11.1336 4.80388ZM16.9025 13.8178H14.7391V11.6544C14.7391 11.2557 14.4161 10.9333 14.018 10.9333C13.62 10.9333 13.2969 11.2557 13.2969 11.6544V13.8178H11.1336C10.7355 13.8178 10.4125 14.1401 10.4125 14.5389C10.4125 14.9377 10.7355 15.26 11.1336 15.26H13.2969V17.4233C13.2969 17.8221 13.62 18.1444 14.018 18.1444C14.4161 18.1444 14.7391 17.8221 14.7391 17.4233V15.26H16.9025C17.3005 15.26 17.6236 14.9377 17.6236 14.5389C17.6236 14.1401 17.3005 13.8178 16.9025 13.8178Z" fill="white"/>
</g>
<defs>
<clipPath id="clip0_10_536">
<rect width="17.3067" height="17.3067" fill="white" transform="translate(0.316895 0.837769)"/>
</clipPath>
</defs>
</svg>
