<svg width="18" height="18" viewBox="0 0 18 18" fill="none" xmlns="http://www.w3.org/2000/svg">
<path d="M15.1574 0.431091H11.566C11.1693 0.431091 10.8477 0.753225 10.8477 1.15057C10.8477 1.54791 11.1693 1.87005 11.566 1.87005H14.8601L9.95265 6.78558C7.29675 4.68715 3.44538 5.14263 1.35042 7.80292C-0.744527 10.4632 -0.289821 14.3209 2.36608 16.4193C5.02197 18.5178 8.87335 18.0623 10.9683 15.402C12.723 13.1739 12.723 10.0311 10.9683 7.80295L15.8758 2.88742V6.18698C15.8758 6.58436 16.1973 6.90646 16.594 6.90646C16.9908 6.90646 17.3123 6.58432 17.3123 6.18698V2.58956C17.3123 1.39746 16.3476 0.431091 15.1574 0.431091ZM6.17868 16.2598C3.60009 16.2598 1.50973 14.166 1.50973 11.5831C1.50973 9.00026 3.60009 6.90646 6.17868 6.90646C8.75727 6.90646 10.8476 9.00026 10.8476 11.5831C10.8445 14.1646 8.75595 16.2566 6.17868 16.2598Z" fill="#8A8AC3"/>
</svg>
