<svg width="18" height="18" viewBox="0 0 18 18" fill="none" xmlns="http://www.w3.org/2000/svg">
<path d="M15.1829 0.431091H11.5855C11.1881 0.431091 10.866 0.753225 10.866 1.15057C10.866 1.54791 11.1881 1.87005 11.5855 1.87005H14.885L9.9695 6.78558C7.30921 4.68715 3.45151 5.14263 1.35308 7.80292C-0.745353 10.4632 -0.289836 14.3209 2.37046 16.4193C5.03075 18.5178 8.88844 18.0623 10.9869 15.402C12.7444 13.1739 12.7444 10.0311 10.9869 7.80295L15.9024 2.88742V6.18698C15.9024 6.58436 16.2245 6.90646 16.6219 6.90646C17.0192 6.90646 17.3413 6.58432 17.3413 6.18698V2.58956C17.3413 1.39746 16.375 0.431091 15.1829 0.431091Z" fill="white"/>
</svg>
